<mxfile host="app.diagrams.net" agent="Mozilla/5.0 (Windows NT 10.0; Win64; x64) AppleWebKit/537.36 (KHTML, like Gecko) Chrome/128.0.0.0 Safari/537.36" version="24.7.8">
  <diagram name="Page-1" id="h3G7H-hfczfN3ZzKmmSW">
    <mxGraphModel dx="743" dy="460" grid="1" gridSize="10" guides="1" tooltips="1" connect="1" arrows="1" fold="1" page="1" pageScale="1" pageWidth="850" pageHeight="1100" math="0" shadow="0">
      <root>
        <mxCell id="0" />
        <mxCell id="1" parent="0" />
        <mxCell id="iUWJvoLGt95LrdvXCsQs-1" value="This program is designed to calculate the estimated cost of a remodeling project" style="text;strokeColor=none;align=center;fillColor=none;html=1;verticalAlign=middle;whiteSpace=wrap;rounded=0;" vertex="1" parent="1">
          <mxGeometry x="20" y="20" width="440" height="30" as="geometry" />
        </mxCell>
        <mxCell id="iUWJvoLGt95LrdvXCsQs-2" value="&lt;div&gt;hrsPerWall shows that it takes the crew 1 hour to remodel 1 wall&lt;/div&gt;&lt;div&gt;matPerWall shows that the wholesale materials cost $100 per wall&lt;/div&gt;" style="text;strokeColor=none;align=center;fillColor=none;html=1;verticalAlign=middle;whiteSpace=wrap;rounded=0;" vertex="1" parent="1">
          <mxGeometry x="390" y="175" width="220" height="110" as="geometry" />
        </mxCell>
        <mxCell id="iUWJvoLGt95LrdvXCsQs-3" value="start" style="ellipse;whiteSpace=wrap;html=1;" vertex="1" parent="1">
          <mxGeometry x="190" y="65" width="100" height="65" as="geometry" />
        </mxCell>
        <mxCell id="iUWJvoLGt95LrdvXCsQs-4" value="declarations&lt;div&gt;num walls&lt;/div&gt;&lt;div&gt;num hrsPerWall = 1&lt;/div&gt;&lt;div&gt;&lt;span style=&quot;background-color: initial;&quot;&gt;num wallTime&lt;/span&gt;&lt;/div&gt;&lt;div&gt;num matPerWall = 100&lt;br&gt;&lt;/div&gt;&lt;div&gt;num materialCost&lt;/div&gt;&lt;div&gt;num laborCost = 30&lt;br&gt;&lt;/div&gt;&lt;div&gt;num wholesaleMarkup = 1.20&lt;br&gt;&lt;/div&gt;&lt;div&gt;num totalCost&lt;/div&gt;" style="rounded=0;whiteSpace=wrap;html=1;" vertex="1" parent="1">
          <mxGeometry x="114.50999999999999" y="160" width="250.95" height="140" as="geometry" />
        </mxCell>
        <mxCell id="iUWJvoLGt95LrdvXCsQs-5" value="" style="edgeStyle=orthogonalEdgeStyle;rounded=0;orthogonalLoop=1;jettySize=auto;html=1;" edge="1" parent="1" source="iUWJvoLGt95LrdvXCsQs-3" target="iUWJvoLGt95LrdvXCsQs-4">
          <mxGeometry relative="1" as="geometry" />
        </mxCell>
        <mxCell id="iUWJvoLGt95LrdvXCsQs-6" value="print &quot;please enter number of walls&quot;" style="shape=parallelogram;perimeter=parallelogramPerimeter;whiteSpace=wrap;html=1;fixedSize=1;" vertex="1" parent="1">
          <mxGeometry x="119.98" y="350" width="240" height="80" as="geometry" />
        </mxCell>
        <mxCell id="iUWJvoLGt95LrdvXCsQs-7" value="" style="edgeStyle=orthogonalEdgeStyle;rounded=0;orthogonalLoop=1;jettySize=auto;html=1;" edge="1" parent="1" source="iUWJvoLGt95LrdvXCsQs-4" target="iUWJvoLGt95LrdvXCsQs-6">
          <mxGeometry relative="1" as="geometry" />
        </mxCell>
        <mxCell id="iUWJvoLGt95LrdvXCsQs-8" value="input walls" style="shape=parallelogram;perimeter=parallelogramPerimeter;whiteSpace=wrap;html=1;fixedSize=1;" vertex="1" parent="1">
          <mxGeometry x="149.98000000000002" y="470" width="180" height="80" as="geometry" />
        </mxCell>
        <mxCell id="iUWJvoLGt95LrdvXCsQs-9" value="" style="edgeStyle=orthogonalEdgeStyle;rounded=0;orthogonalLoop=1;jettySize=auto;html=1;" edge="1" parent="1" source="iUWJvoLGt95LrdvXCsQs-6" target="iUWJvoLGt95LrdvXCsQs-8">
          <mxGeometry relative="1" as="geometry" />
        </mxCell>
        <mxCell id="iUWJvoLGt95LrdvXCsQs-10" value="&lt;div&gt;wallTime = hrsPerWall * walls&lt;/div&gt;&lt;div&gt;&lt;br&gt;&lt;/div&gt;&lt;div&gt;materialCost = matPerWall * walls&lt;/div&gt;&lt;div&gt;&lt;br&gt;&lt;/div&gt;totalCost = (wallTime * laborCost) + (materialCost * wholesaleMarkup)" style="rounded=0;whiteSpace=wrap;html=1;" vertex="1" parent="1">
          <mxGeometry x="110" y="600" width="260" height="120" as="geometry" />
        </mxCell>
        <mxCell id="iUWJvoLGt95LrdvXCsQs-11" value="" style="edgeStyle=orthogonalEdgeStyle;rounded=0;orthogonalLoop=1;jettySize=auto;html=1;" edge="1" parent="1" source="iUWJvoLGt95LrdvXCsQs-8" target="iUWJvoLGt95LrdvXCsQs-10">
          <mxGeometry relative="1" as="geometry" />
        </mxCell>
        <mxCell id="iUWJvoLGt95LrdvXCsQs-15" value="print totalCost&lt;div&gt;&lt;br&gt;&lt;/div&gt;&lt;div&gt;print &quot;Thank you for using the estimated remodeling cost calculator&quot;&lt;/div&gt;" style="shape=parallelogram;perimeter=parallelogramPerimeter;whiteSpace=wrap;html=1;fixedSize=1;" vertex="1" parent="1">
          <mxGeometry x="120" y="760" width="240" height="120" as="geometry" />
        </mxCell>
        <mxCell id="iUWJvoLGt95LrdvXCsQs-16" value="" style="edgeStyle=orthogonalEdgeStyle;rounded=0;orthogonalLoop=1;jettySize=auto;html=1;" edge="1" parent="1" source="iUWJvoLGt95LrdvXCsQs-10" target="iUWJvoLGt95LrdvXCsQs-15">
          <mxGeometry relative="1" as="geometry" />
        </mxCell>
        <mxCell id="iUWJvoLGt95LrdvXCsQs-17" value="stop" style="ellipse;whiteSpace=wrap;html=1;" vertex="1" parent="1">
          <mxGeometry x="169.98999999999998" y="920" width="140.02" height="70" as="geometry" />
        </mxCell>
        <mxCell id="iUWJvoLGt95LrdvXCsQs-18" value="" style="edgeStyle=orthogonalEdgeStyle;rounded=0;orthogonalLoop=1;jettySize=auto;html=1;" edge="1" parent="1" source="iUWJvoLGt95LrdvXCsQs-15" target="iUWJvoLGt95LrdvXCsQs-17">
          <mxGeometry relative="1" as="geometry" />
        </mxCell>
      </root>
    </mxGraphModel>
  </diagram>
</mxfile>
